<svg xmlns="http://www.w3.org/2000/svg" viewBox="0 0 512 512">
  <!-- Fond du document -->
  <path d="M100 30 C 70 30, 50 50, 50 80 L 50 430 C 50 460, 70 480, 100 480 L 350 480 C 380 480, 400 460, 400 430 L 400 80 C 400 50, 380 30, 350 30 Z" fill="#FFDEAD" />
  
  <!-- Coin plié du document -->
  <path d="M350 30 L 400 80 L 350 80 Z" fill="#FFA500" />
  
  <!-- Lignes de texte sur le document -->
  <rect x="150" y="110" width="150" height="10" rx="5" ry="5" fill="#000" />
  <rect x="320" y="110" width="30" height="10" rx="5" ry="5" fill="#000" />
  <rect x="150" y="145" width="30" height="10" rx="5" ry="5" fill="#000" />
  <rect x="190" y="145" width="160" height="10" rx="5" ry="5" fill="#000" />
  
  <!-- Symbole dollar sur le document -->
  <text x="200" y="250" font-family="Arial" font-size="120" font-weight="bold" fill="#000">$</text>
  
  <!-- Calculatrice -->
  <rect x="280" y="200" width="180" height="250" rx="20" ry="20" fill="#8FBC8F" />
  <rect x="300" y="220" width="140" height="60" rx="10" ry="10" fill="#4682B4" />
  
  <!-- Boutons de la calculatrice -->
  <rect x="300" y="300" width="40" height="40" rx="5" ry="5" fill="#000" />
  <rect x="350" y="300" width="40" height="40" rx="5" ry="5" fill="#000" />
  <rect x="400" y="300" width="40" height="40" rx="5" ry="5" fill="#FFA500" />
  
  <rect x="300" y="350" width="40" height="40" rx="5" ry="5" fill="#000" />
  <rect x="350" y="350" width="40" height="40" rx="5" ry="5" fill="#000" />
  <rect x="400" y="350" width="40" height="40" rx="5" ry="5" fill="#FFA500" />
  
  <rect x="300" y="400" width="40" height="40" rx="5" ry="5" fill="#000" />
  <rect x="350" y="400" width="40" height="40" rx="5" ry="5" fill="#000" />
  <rect x="400" y="400" width="90" height="40" rx="5" ry="5" fill="#FFA500" />
  
  <!-- Pièces de monnaie -->
  <circle cx="70" cy="400" r="50" fill="#FFA500" stroke="#000" stroke-width="5" />
  <circle cx="70" cy="400" r="40" fill="#FFD700" />
  <text x="55" y="420" font-family="Arial" font-size="40" font-weight="bold" fill="#000">$</text>
  
  <circle cx="90" cy="350" r="50" fill="#FFA500" stroke="#000" stroke-width="5" />
  <circle cx="90" cy="350" r="40" fill="#FFD700" />
  <text x="75" y="370" font-family="Arial" font-size="40" font-weight="bold" fill="#000">$</text>
  
  <circle cx="110" cy="300" r="50" fill="#FFA500" stroke="#000" stroke-width="5" />
  <circle cx="110" cy="300" r="40" fill="#FFD700" />
  <text x="95" y="320" font-family="Arial" font-size="40" font-weight="bold" fill="#000">$</text>
</svg> 